<mxfile host="app.diagrams.net" modified="2022-05-24T06:53:53.467Z" agent="5.0 (Windows NT 10.0; Win64; x64) AppleWebKit/537.36 (KHTML, like Gecko) Chrome/101.0.4951.64 Safari/537.36 Edg/101.0.1210.53" etag="Ef7FlsnQ70QhR4tPDrIh" version="18.1.2" type="github">
  <diagram id="UqzhaD2cU2N51YnKvoaC" name="Page-1">
    <mxGraphModel dx="447" dy="267" grid="1" gridSize="10" guides="1" tooltips="1" connect="1" arrows="1" fold="1" page="1" pageScale="1" pageWidth="827" pageHeight="1169" math="0" shadow="0">
      <root>
        <mxCell id="0" />
        <mxCell id="1" parent="0" />
        <mxCell id="nx-0m_d5kOrfcvNWL6oM-15" value="" style="group" vertex="1" connectable="0" parent="1">
          <mxGeometry x="216" y="362" width="163" height="115" as="geometry" />
        </mxCell>
        <mxCell id="nx-0m_d5kOrfcvNWL6oM-1" value="&lt;h5 style=&quot;font-size: 11px;&quot;&gt;&lt;font style=&quot;line-height: 1; font-weight: normal; font-size: 11px;&quot;&gt;PC&lt;/font&gt;&lt;/h5&gt;&lt;h5 style=&quot;font-size: 11px;&quot;&gt;&lt;font style=&quot;line-height: 1; font-weight: normal; font-size: 11px;&quot;&gt;reg&lt;/font&gt;&lt;/h5&gt;" style="rounded=0;whiteSpace=wrap;html=1;fontSize=11;fontStyle=1" vertex="1" parent="nx-0m_d5kOrfcvNWL6oM-15">
          <mxGeometry x="123" y="25" width="40" height="70" as="geometry" />
        </mxCell>
        <mxCell id="nx-0m_d5kOrfcvNWL6oM-2" value="" style="endArrow=classic;html=1;rounded=0;entryX=0;entryY=0.5;entryDx=0;entryDy=0;exitX=0.5;exitY=0;exitDx=0;exitDy=0;" edge="1" parent="nx-0m_d5kOrfcvNWL6oM-15" source="nx-0m_d5kOrfcvNWL6oM-4" target="nx-0m_d5kOrfcvNWL6oM-1">
          <mxGeometry width="50" height="50" relative="1" as="geometry">
            <mxPoint x="51" y="59.5" as="sourcePoint" />
            <mxPoint x="121" y="59.5" as="targetPoint" />
            <Array as="points" />
          </mxGeometry>
        </mxCell>
        <mxCell id="nx-0m_d5kOrfcvNWL6oM-4" value="" style="shape=trapezoid;perimeter=trapezoidPerimeter;whiteSpace=wrap;html=1;fixedSize=1;rotation=90;size=30;" vertex="1" parent="nx-0m_d5kOrfcvNWL6oM-15">
          <mxGeometry x="16.5" y="47.5" width="110" height="25" as="geometry" />
        </mxCell>
        <mxCell id="nx-0m_d5kOrfcvNWL6oM-6" value="" style="endArrow=classic;html=1;rounded=0;entryX=0;entryY=0.5;entryDx=0;entryDy=0;exitX=0.5;exitY=0;exitDx=0;exitDy=0;" edge="1" parent="nx-0m_d5kOrfcvNWL6oM-15">
          <mxGeometry width="50" height="50" relative="1" as="geometry">
            <mxPoint x="21" y="25" as="sourcePoint" />
            <mxPoint x="58" y="25" as="targetPoint" />
            <Array as="points" />
          </mxGeometry>
        </mxCell>
        <mxCell id="nx-0m_d5kOrfcvNWL6oM-7" value="" style="endArrow=classic;html=1;rounded=0;entryX=0;entryY=0.5;entryDx=0;entryDy=0;exitX=1;exitY=0.5;exitDx=0;exitDy=0;edgeStyle=elbowEdgeStyle;" edge="1" parent="nx-0m_d5kOrfcvNWL6oM-15" source="nx-0m_d5kOrfcvNWL6oM-16">
          <mxGeometry width="50" height="50" relative="1" as="geometry">
            <mxPoint x="21" y="47.5" as="sourcePoint" />
            <mxPoint x="58" y="47.5" as="targetPoint" />
            <Array as="points">
              <mxPoint x="-6" y="38" />
            </Array>
          </mxGeometry>
        </mxCell>
        <mxCell id="nx-0m_d5kOrfcvNWL6oM-9" value="" style="endArrow=classic;html=1;rounded=0;entryX=0;entryY=0.5;entryDx=0;entryDy=0;exitX=0.5;exitY=0;exitDx=0;exitDy=0;" edge="1" parent="nx-0m_d5kOrfcvNWL6oM-15">
          <mxGeometry width="50" height="50" relative="1" as="geometry">
            <mxPoint x="22" y="97" as="sourcePoint" />
            <mxPoint x="59" y="97" as="targetPoint" />
            <Array as="points" />
          </mxGeometry>
        </mxCell>
        <mxCell id="nx-0m_d5kOrfcvNWL6oM-10" value="debug_pc" style="text;strokeColor=none;fillColor=none;spacingLeft=4;spacingRight=4;overflow=hidden;rotatable=0;points=[[0,0.5],[1,0.5]];portConstraint=eastwest;fontSize=9;strokeWidth=0;" vertex="1" parent="nx-0m_d5kOrfcvNWL6oM-15">
          <mxGeometry x="3" width="50" height="20" as="geometry" />
        </mxCell>
        <mxCell id="nx-0m_d5kOrfcvNWL6oM-11" value="excep_pc" style="text;strokeColor=none;fillColor=none;spacingLeft=4;spacingRight=4;overflow=hidden;rotatable=0;points=[[0,0.5],[1,0.5]];portConstraint=eastwest;fontSize=9;strokeWidth=0;" vertex="1" parent="nx-0m_d5kOrfcvNWL6oM-15">
          <mxGeometry x="4" y="24" width="50" height="20" as="geometry" />
        </mxCell>
        <mxCell id="nx-0m_d5kOrfcvNWL6oM-12" value="branch_pc" style="text;strokeColor=none;fillColor=none;spacingLeft=4;spacingRight=4;overflow=hidden;rotatable=0;points=[[0,0.5],[1,0.5]];portConstraint=eastwest;fontSize=9;strokeWidth=0;" vertex="1" parent="nx-0m_d5kOrfcvNWL6oM-15">
          <mxGeometry y="51" width="62" height="20" as="geometry" />
        </mxCell>
        <mxCell id="nx-0m_d5kOrfcvNWL6oM-13" value="pc+4" style="text;strokeColor=none;fillColor=none;spacingLeft=4;spacingRight=4;overflow=hidden;rotatable=0;points=[[0,0.5],[1,0.5]];portConstraint=eastwest;fontSize=9;strokeWidth=0;" vertex="1" parent="nx-0m_d5kOrfcvNWL6oM-15">
          <mxGeometry x="12" y="76" width="62" height="20" as="geometry" />
        </mxCell>
        <mxCell id="nx-0m_d5kOrfcvNWL6oM-14" value="pc_next" style="text;strokeColor=none;fillColor=none;spacingLeft=4;spacingRight=4;overflow=hidden;rotatable=0;points=[[0,0.5],[1,0.5]];portConstraint=eastwest;fontSize=9;strokeWidth=0;" vertex="1" parent="nx-0m_d5kOrfcvNWL6oM-15">
          <mxGeometry x="81.5" y="39" width="50" height="20" as="geometry" />
        </mxCell>
        <mxCell id="nx-0m_d5kOrfcvNWL6oM-16" value="&lt;h5 style=&quot;font-size: 11px;&quot;&gt;&lt;span style=&quot;font-weight: 400;&quot;&gt;expection&lt;/span&gt;&lt;/h5&gt;" style="rounded=0;whiteSpace=wrap;html=1;fontSize=11;fontStyle=1" vertex="1" parent="1">
          <mxGeometry x="80" y="362" width="90" height="30" as="geometry" />
        </mxCell>
        <mxCell id="nx-0m_d5kOrfcvNWL6oM-19" style="edgeStyle=orthogonalEdgeStyle;rounded=0;orthogonalLoop=1;jettySize=auto;html=1;exitX=1;exitY=0.5;exitDx=0;exitDy=0;entryX=0.944;entryY=1.083;entryDx=0;entryDy=0;entryPerimeter=0;fontFamily=Helvetica;fontSize=11;endArrow=classic;endFill=1;" edge="1" parent="1" source="nx-0m_d5kOrfcvNWL6oM-17" target="nx-0m_d5kOrfcvNWL6oM-12">
          <mxGeometry relative="1" as="geometry">
            <Array as="points">
              <mxPoint x="210" y="445" />
              <mxPoint x="210" y="435" />
            </Array>
          </mxGeometry>
        </mxCell>
        <mxCell id="nx-0m_d5kOrfcvNWL6oM-17" value="&lt;h5 style=&quot;font-size: 11px;&quot;&gt;&lt;span style=&quot;font-weight: 400;&quot;&gt;Branch&lt;/span&gt;&lt;/h5&gt;" style="rounded=0;whiteSpace=wrap;html=1;fontSize=11;fontStyle=1" vertex="1" parent="1">
          <mxGeometry x="80" y="430" width="90" height="30" as="geometry" />
        </mxCell>
      </root>
    </mxGraphModel>
  </diagram>
</mxfile>
